<svg width="60" height="60" viewBox="0 0 60 60" fill="none" xmlns="http://www.w3.org/2000/svg">
<path d="M29.925 5C16.125 5 4.925 16.2 4.925 30C4.925 43.8 16.125 55 29.925 55C43.725 55 54.925 43.8 54.925 30C54.925 16.2 43.75 5 29.925 5ZM37.425 35.575L30.175 39.75C29.275 40.275 28.275 40.525 27.3 40.525C26.3 40.525 25.325 40.275 24.425 39.75C22.625 38.7 21.55 36.85 21.55 34.75V26.375C21.55 24.3 22.625 22.425 24.425 21.375C26.225 20.325 28.375 20.325 30.2 21.375L37.45 25.55C39.25 26.6 40.325 28.45 40.325 30.55C40.325 32.65 39.25 34.525 37.425 35.575Z" fill="white"/>
</svg>
